<svg width="155" height="13" viewBox="0 0 155 13" fill="none" xmlns="http://www.w3.org/2000/svg">
<path d="M5.39599 5.28945H13.2117V3.02105H0.838867C0.838867 2.19175 1.17371 1.55757 1.84339 1.11853C2.52941 0.679483 3.43594 0.459961 4.56297 0.459961H13.6527C14.1427 0.459961 14.6082 0.525005 15.0492 0.655092C15.4903 0.78518 15.8741 0.96405 16.2008 1.1917C16.5438 1.40309 16.8133 1.66327 17.0093 1.97223C17.2053 2.28118 17.3033 2.62266 17.3033 2.99666V10.1433C17.3033 10.5336 17.2053 10.8832 17.0093 11.1922C16.8133 11.5011 16.5438 11.7694 16.2008 11.9971C15.8741 12.2085 15.4903 12.3792 15.0492 12.5093C14.6082 12.6231 14.1346 12.68 13.6282 12.68H4.56297C4.04029 12.68 3.55027 12.6313 3.09293 12.5337C2.65192 12.4361 2.25991 12.2898 1.9169 12.0946C1.57389 11.8833 1.30438 11.6231 1.10837 11.3141C0.928703 10.9889 0.838867 10.6068 0.838867 10.1677H13.2117V7.87494H5.39599V5.28945Z" fill="#2B2E34"/>
<path d="M31.475 12.68C30.9687 12.68 30.544 12.6394 30.201 12.5581C29.8743 12.4768 29.5803 12.3792 29.319 12.2654C29.074 12.1516 28.8534 12.0215 28.6574 11.8751C28.4614 11.7288 28.2654 11.5906 28.0694 11.4605L22.8753 7.04563V10.3385C22.8753 10.7775 22.7691 11.1515 22.5568 11.4605C22.3608 11.7532 22.0913 11.9889 21.7483 12.1678C21.4052 12.3467 21.0051 12.4768 20.5477 12.5581C20.1067 12.6394 19.6412 12.68 19.1512 12.68H18.7837V0.459961H22.8753V5.85045L28.2164 0.459961H32.7491L27.1629 6.19193L34.6111 12.68H31.475Z" fill="#2B2E34"/>
<path d="M52.5469 10.2165C52.5469 10.6556 52.4489 11.0296 52.2529 11.3385C52.0569 11.6312 51.7874 11.8833 51.4444 12.0946C51.1177 12.2898 50.7257 12.4361 50.2684 12.5337C49.811 12.6313 49.321 12.68 48.7983 12.68H39.7331C39.2267 12.68 38.753 12.6231 38.312 12.5093C37.871 12.3792 37.479 12.2085 37.136 11.9971C36.8093 11.7694 36.548 11.5093 36.352 11.2166C36.1723 10.9076 36.0825 10.558 36.0825 10.1677V2.94788C36.0825 2.59014 36.1723 2.25679 36.352 1.94783C36.548 1.62262 36.8093 1.35431 37.136 1.14292C37.479 0.915267 37.871 0.744528 38.312 0.630701C38.753 0.516874 39.2267 0.459961 39.7331 0.459961H48.7983C49.909 0.459961 50.8074 0.679483 51.4934 1.11853C52.1957 1.54131 52.5469 2.16736 52.5469 2.99666V10.2165ZM48.4553 3.02105H40.1741V10.1677H48.4553V3.02105Z" fill="#2B2E34"/>
<path d="M66.4001 12.68V7.87494H58.1189V12.68H54.0273V2.94788C54.0273 2.59014 54.1253 2.26492 54.3213 1.97223C54.5173 1.66327 54.7786 1.40309 55.1053 1.1917C55.4483 0.96405 55.8403 0.78518 56.2813 0.655092C56.7224 0.525005 57.196 0.459961 57.7024 0.459961H58.1189V5.33823H66.4246V0.459961H70.4917V12.68H66.4001Z" fill="#2B2E34"/>
<path d="M94.0359 10.2165C94.0359 10.7369 93.8971 11.1596 93.6194 11.4849C93.358 11.8101 93.0232 12.0621 92.6149 12.241C92.2228 12.4199 91.7818 12.5418 91.2918 12.6069C90.8181 12.6556 90.369 12.68 89.9443 12.68H81.369V12.4361C81.369 11.867 81.5161 11.4279 81.8101 11.119C82.1204 10.7938 82.4716 10.5661 82.8636 10.436C83.2719 10.2897 83.6884 10.2084 84.1131 10.1921C84.5541 10.1759 84.8971 10.1677 85.1422 10.1677H89.9443V7.87494H81.32C81.075 7.87494 80.7402 7.8912 80.3155 7.92372C79.8908 7.93998 79.4662 7.90746 79.0415 7.82615C78.6331 7.72859 78.282 7.54159 77.988 7.26515C77.694 6.97246 77.547 6.52528 77.547 5.92363V0.484353H77.89C78.1513 0.484353 78.4943 0.500614 78.919 0.533136C79.36 0.565657 79.7765 0.646962 80.1685 0.777049C80.5769 0.907137 80.928 1.11853 81.222 1.41123C81.5161 1.70392 81.6631 2.1267 81.6631 2.67958V5.28945H89.9443V0.459961H94.0359V10.2165Z" fill="#2B2E34"/>
<path d="M111.98 5.28945C111.98 6.15128 111.564 6.80172 110.731 7.24076C109.898 7.66355 108.779 7.87494 107.374 7.87494H101.249C101.249 7.61476 101.29 7.3302 101.371 7.02124C101.469 6.69602 101.608 6.41146 101.788 6.16754C101.984 5.92363 102.237 5.72037 102.547 5.55776C102.858 5.37889 103.225 5.28945 103.65 5.28945H107.864V3.02105H99.6073V9.82625C99.6073 10.9645 99.2561 11.745 98.5538 12.1678C98.1944 12.3792 97.7861 12.5174 97.3288 12.5825C96.8714 12.6475 96.4059 12.68 95.9322 12.68H95.5157V0.459961H108.232C109.342 0.459961 110.241 0.679483 110.927 1.11853C111.629 1.55757 111.98 2.19175 111.98 3.02105V5.28945Z" fill="#2B2E34"/>
<path d="M113.461 3.02105C113.461 2.19175 113.804 1.55757 114.49 1.11853C115.192 0.679483 116.098 0.459961 117.209 0.459961H133.306C134.417 0.459961 135.315 0.679483 136.001 1.11853C136.703 1.55757 137.055 2.19175 137.055 3.02105V7.16759C137.055 8.02942 136.638 8.67985 135.805 9.1189C134.972 9.54168 133.853 9.75307 132.449 9.75307H127.303V9.82625C127.303 10.9645 126.952 11.745 126.25 12.1678C125.891 12.3792 125.482 12.5174 125.025 12.5825C124.567 12.6475 124.102 12.68 123.628 12.68H123.212V9.75307H118.067C116.662 9.75307 115.543 9.54168 114.71 9.1189C113.877 8.67985 113.461 8.02942 113.461 7.16759V3.02105ZM127.303 7.16759H132.939V3.02105H127.303V7.16759ZM117.577 7.16759H123.212V3.02105H117.577V7.16759Z" fill="#2B2E34"/>
<path d="M155 10.2165C155 10.6556 154.902 11.0296 154.706 11.3385C154.51 11.6312 154.24 11.8833 153.897 12.0946C153.571 12.2898 153.179 12.4361 152.721 12.5337C152.264 12.6313 151.774 12.68 151.251 12.68H142.186C141.68 12.68 141.206 12.6231 140.765 12.5093C140.324 12.3792 139.932 12.2085 139.589 11.9971C139.262 11.7694 139.001 11.5093 138.805 11.2166C138.625 10.9076 138.535 10.558 138.535 10.1677V2.94788C138.535 2.59014 138.625 2.25679 138.805 1.94783C139.001 1.62262 139.262 1.35431 139.589 1.14292C139.932 0.915267 140.324 0.744528 140.765 0.630701C141.206 0.516874 141.68 0.459961 142.186 0.459961H151.251C152.362 0.459961 153.26 0.679483 153.946 1.11853C154.649 1.54131 155 2.16736 155 2.99666V10.2165ZM150.908 3.02105H142.627V10.1677H150.908V3.02105Z" fill="#2B2E34"/>
</svg>
